Patient4_TMGait_0pt7_01_right_06_GRF.mot
version=1
nRows=39
nColumns=19
inDegrees=no
endheader
time	F1x	F1y	F1z	M1x	M1y	M1z	F2x	F2y	F2z	M2x	M2y	M2z	EC1x	EC1y	EC1z	EC2x	EC2y	EC2z
6.35	24.5909	708.0643	53.8877	-270.175	-45.3719	671.0581	-16.7298	-9.3173	-30.4319	7.035	25.0051	-8.5593	-0.0592	0.0182	-0.0073	-0.0462	0.0165	0.9585
6.3617	20.7585	708.191	55.6883	-270.4533	-46.7866	667.9253	-11.3961	-5.1312	-20.7824	5.2129	17.1994	-4.4546	-0.0592	0.0182	-0.0073	-0.0462	0.0165	0.9585
6.3734	18.0967	708.7039	56.9356	-270.9376	-47.4015	664.4127	-6.9654	-1.5388	-12.5087	3.6534	10.5157	-0.92455	-0.0592	0.0182	-0.0073	-0.0462	0.0165	0.9585
6.3851	16.8288	709.9711	57.5285	-271.7562	-47.1261	660.9984	-3.6535	1.2392	-6.145	2.4627	5.3833	1.8008	-0.0592	0.0182	-0.0073	-0.0462	0.0165	0.9585
6.3969	16.95	712.2394	57.4985	-272.9935	-46.0057	658.0384	-1.422	3.1909	-1.717	1.6428	1.825	3.7046	-0.0592	0.0182	-0.0073	-0.0462	0.0165	0.9585
6.4086	18.3067	715.5408	56.968	-274.6433	-44.1805	655.6975	-0.10687	4.4184	1.0406	1.1383	-0.37037	4.8901	-0.0592	0.0182	-0.0073	-0.0462	0.0165	0.9585
6.4203	20.703	719.6578	56.0816	-276.6	-41.8059	653.8525	0.51834	5.0794	2.4934	0.87198	-1.4949	5.515	-0.0592	0.0182	-0.0073	-0.0462	0.0165	0.9585
6.432	23.9776	724.198	55.0116	-278.6851	-39.0507	652.2208	0.64848	5.303	3.0254	0.75657	-1.8549	5.7092	-0.0592	0.0182	-0.0073	-0.0462	0.0165	0.9585
6.4437	28.0108	728.7105	53.9364	-280.702	-36.0732	650.4467	0.47467	5.1832	2.9602	0.70964	-1.7141	5.5488	-0.0592	0.0182	-0.0073	-0.0462	0.0165	0.9585
6.4554	32.7108	732.886	53.0133	-282.5092	-33.0178	648.2872	0.11717	4.7643	2.5591	0.65615	-1.2861	5.0677	-0.0592	0.0182	-0.0073	-0.0462	0.0165	0.9585
6.4671	37.9994	736.6326	52.3933	-284.0502	-30.0249	645.7024	-0.3033	4.0218	2.0038	0.52379	-0.72857	4.2289	-0.0592	0.0182	-0.0073	-0.0462	0.0165	0.9585
6.4789	43.7748	740.1382	52.1658	-285.3746	-27.1974	642.9017	-0.71181	2.923	1.4134	0.25569	-0.14202	2.9996	-0.0592	0.0182	-0.0073	-0.0462	0.0165	0.9585
6.4906	49.8607	743.7574	52.426	-286.5977	-24.6702	640.2615	-1.0244	1.397	0.87245	-0.19598	0.38441	1.2797	-0.0592	0.0182	-0.0073	-0.0462	0.0165	0.9585
6.5023	56.0932	747.9249	53.1987	-287.868	-22.5287	638.2458	-1.1661	-0.56493	0.4361	-0.84472	0.77072	-0.9458	-0.0592	0.0182	-0.0073	-0.0462	0.0165	0.9585
6.514	62.2117	752.9765	54.5023	-289.3025	-20.8791	637.2453	-1.0165	-2.9182	0.16899	-1.6684	0.90007	-3.6394	-0.0592	0.0182	-0.0073	-0.0462	0.0165	0.9585
6.5257	67.9518	759.0288	56.2776	-290.9402	-19.7648	637.4491	-0.46381	-5.4259	0.14434	-2.5698	0.63898	-6.5219	-0.0592	0.0182	-0.0073	-0.0462	0.0165	0.9585
6.5374	72.9801	765.8434	58.4496	-292.6856	-19.2318	638.7717	0.65465	-7.6214	0.45847	-3.3591	-0.19309	-9.0746	-0.0592	0.0182	-0.0073	-0.0462	0.0165	0.9585
6.5491	76.9773	772.767	60.8789	-294.2822	-19.2787	640.7688	2.4719	-8.6689	1.2423	-3.7106	-1.8069	-10.3369	-0.0592	0.0182	-0.0073	-0.0462	0.0165	0.9585
6.5609	79.6185	778.7632	63.4342	-295.3288	-19.9165	642.6968	5.1091	-7.3331	2.6335	-3.1473	-4.4125	-8.8949	-0.0592	0.0182	-0.0073	-0.0462	0.0165	0.9585
6.5726	80.7459	782.6961	65.9424	-295.3944	-21.0802	643.6898	8.554	-1.8932	4.7725	-1.0189	-8.166	-2.7464	-0.0592	0.0182	-0.0073	-0.0462	0.0165	0.9585
6.5843	80.3358	783.5754	68.233	-294.1205	-22.6561	642.9474	12.6223	9.7383	7.7272	3.4612	-13.0643	10.5322	-0.0592	0.0182	-0.0073	-0.0462	0.0165	0.9585
6.596	78.652	780.6423	70.1048	-291.2655	-24.418	639.7729	16.7522	29.868	11.4285	11.1489	-18.8028	33.6534	-0.0592	0.0182	-0.0073	-0.0462	0.0165	0.9585
6.6077	76.1197	773.3668	71.3563	-286.7071	-26.0705	633.5915	19.944	60.5134	15.554	22.7825	-24.6055	69.0037	-0.0592	0.0182	-0.0073	-0.0462	0.0165	0.9585
6.6194	73.3247	761.3971	71.7245	-280.4187	-27.2003	623.8905	20.5184	102.7091	19.3886	38.7143	-28.999	117.8876	-0.0592	0.0182	-0.0073	-0.0462	0.0165	0.9585
6.6311	70.8159	744.3822	70.9694	-272.391	-27.4146	610.1552	16.3388	155.7725	21.8348	58.6328	-29.9321	179.636	-0.0592	0.0182	-0.0073	-0.0462	0.0165	0.9585
6.6429	68.988	721.7246	68.8692	-262.5295	-26.3851	591.6798	6.0931	217.1073	21.7284	81.4895	-25.5736	251.3691	-0.0592	0.0182	-0.0073	-0.0462	0.0165	0.9585
6.6546	67.8666	692.425	65.339	-250.5684	-24.0272	567.5321	-9.0691	282.3554	18.0259	105.5842	-15.184	327.9941	-0.0592	0.0182	-0.0073	-0.0462	0.0165	0.9585
6.6663	67.0922	655.1861	60.3754	-236.0956	-20.4722	536.6458	-26.3419	345.546	10.8777	128.6997	-0.00047826	402.2454	-0.0592	0.0182	-0.0073	-0.0462	0.0165	0.9585
6.678	65.9988	608.9726	54.12	-218.7485	-16.0832	498.2845	-42.6229	400.7961	1.263	148.7126	17.5828	466.8201	-0.0592	0.0182	-0.0073	-0.0462	0.0165	0.9585
6.6897	63.9064	553.7485	46.8158	-198.4826	-11.3002	452.5763	-55.6452	444.9301	-9.2067	164.5321	34.796	517.6783	-0.0592	0.0182	-0.0073	-0.0462	0.0165	0.9585
6.7014	60.2776	490.7994	38.8634	-175.6927	-6.6246	400.7046	-64.6338	478.3105	-19.2704	176.366	49.872	555.1459	-0.0592	0.0182	-0.0073	-0.0462	0.0165	0.9585
6.7131	54.8581	422.6062	30.7652	-151.1882	-2.5214	344.7601	-69.7574	503.7709	-27.8282	185.3425	61.633	582.5728	-0.0592	0.0182	-0.0073	-0.0462	0.0165	0.9585
6.7249	47.731	352.4903	23.0358	-126.0846	0.65524	287.4611	-71.5749	524.9197	-34.1476	192.8472	69.5135	604.2384	-0.0592	0.0182	-0.0073	-0.0462	0.0165	0.9585
6.7366	39.2747	284.1343	16.1347	-101.6448	2.7039	231.7763	-70.8122	544.7592	-38.2174	200.0027	73.7968	623.7206	-0.0592	0.0182	-0.0073	-0.0462	0.0165	0.9585
6.7483	30.1743	221.0429	10.3786	-79.088	3.6375	180.4865	-68.1981	565.254	-40.4027	207.4993	75.2155	643.3845	-0.0592	0.0182	-0.0073	-0.0462	0.0165	0.9585
6.76	21.2486	165.8336	5.9486	-59.3379	3.6267	135.6383	-64.4515	587.1713	-41.6109	215.5475	75.0433	664.2637	-0.0592	0.0182	-0.0073	-0.0462	0.0165	0.9585
6.7717	13.2638	119.86	2.8362	-42.8776	2.9633	98.2639	-60.2012	610.2827	-42.5578	223.9956	74.3308	686.2315	-0.0592	0.0182	-0.0073	-0.0462	0.0165	0.9585
6.7834	6.6753	83.1349	0.89021	-29.7262	1.94	68.3428	-55.9779	633.7046	-44.0163	232.4572	74.1003	708.4119	-0.0592	0.0182	-0.0073	-0.0462	0.0165	0.9585
6.7951	1.6837	54.8109	-0.18106	-19.5943	0.85517	45.2	-52.1734	656.3984	-46.1855	240.5324	74.7247	729.7139	-0.0592	0.0182	-0.0073	-0.0462	0.0165	0.9585
